<svg xmlns="http://www.w3.org/2000/svg" xmlns:xlink="http://www.w3.org/1999/xlink" width="20" height="20" preserveAspectRatio="xMidYMid meet" viewBox="0 0 20 20" style="-ms-transform: rotate(360deg); -webkit-transform: rotate(360deg); transform: rotate(360deg);"><path d="M10 10L2.54 7.02L3 18H1l.48-11.41L0 6l10-4l10 4zm0-5c-.55 0-1 .22-1 .5s.45.5 1 .5s1-.22 1-.5s-.45-.5-1-.5zm0 6l5.57-2.23c.71.94 1.2 2.07 1.36 3.3c-.3-.04-.61-.07-.93-.07c-2.55 0-4.78 1.37-6 3.41A6.986 6.986 0 0 0 4 12c-.32 0-.63.03-.93.07c.16-1.23.65-2.36 1.36-3.3z" fill="#626262"/><rect x="0" y="0" width="20" height="20" fill="rgba(0, 0, 0, 0)" /></svg>